<?plantuml 1.2026.2?><svg xmlns="http://www.w3.org/2000/svg" xmlns:xlink="http://www.w3.org/1999/xlink" contentStyleType="text/css" data-diagram-type="SEQUENCE" height="360px" preserveAspectRatio="none" style="width:363px;height:360px;background:#FFFFFF;" version="1.1" viewBox="0 0 363 360" width="363px" zoomAndPan="magnify"><defs/><g><g class="participant-lifeline" data-entity-uid="part1" data-qualified-name="Client" id="part1-lifeline"><g><title>Client</title><rect fill="#000000" fill-opacity="0.00000" height="197.6001" width="8" x="21.8919" y="81.7999"/><line style="stroke:#181818;stroke-width:0.5;stroke-dasharray:5,5;" x1="25" x2="25" y1="81.7999" y2="279.4"/></g></g><g class="participant-lifeline" data-entity-uid="part2" data-qualified-name="FastAPI" id="part2-lifeline"><g><title>FastAPI</title><rect fill="#000000" fill-opacity="0.00000" height="197.6001" width="8" x="137.646" y="81.7999"/><line style="stroke:#181818;stroke-width:0.5;stroke-dasharray:5,5;" x1="140.7471" x2="140.7471" y1="81.7999" y2="279.4"/></g></g><g class="participant-lifeline" data-entity-uid="part3" data-qualified-name="App" id="part3-lifeline"><g><title>App</title><rect fill="#000000" fill-opacity="0.00000" height="197.6001" width="8" x="252.6591" y="81.7999"/><line style="stroke:#181818;stroke-width:0.5;stroke-dasharray:5,5;" x1="256.2062" x2="256.2062" y1="81.7999" y2="279.4"/></g></g><g class="participant-lifeline" data-entity-uid="part4" data-qualified-name="Handler" id="part4-lifeline"><g><title>Handler</title><rect fill="#000000" fill-opacity="0.00000" height="197.6001" width="8" x="322.1852" y="81.7999"/><line style="stroke:#181818;stroke-width:0.5;stroke-dasharray:5,5;" x1="325.6783" x2="325.6783" y1="81.7999" y2="279.4"/></g></g><g class="participant participant-head" data-entity-uid="part1" data-qualified-name="Client" id="part1-head"><text fill="#000000" font-family="sans-serif" font-size="14" lengthAdjust="spacing" textLength="35.7838" x="5" y="78.0059">Client</text><ellipse cx="25.8919" cy="13.5" fill="#E2E2F0" rx="8" ry="8" style="stroke:#181818;stroke-width:0.5;"/><path d="M25.8919,21.5 L25.8919,48.5 M12.8919,29.5 L38.8919,29.5 M25.8919,48.5 L12.8919,63.5 M25.8919,48.5 L38.8919,63.5" fill="none" style="stroke:#181818;stroke-width:0.5;"/></g><g class="participant participant-tail" data-entity-uid="part1" data-qualified-name="Client" id="part1-tail"><text fill="#000000" font-family="sans-serif" font-size="14" lengthAdjust="spacing" textLength="35.7838" x="5" y="291.406">Client</text><ellipse cx="25.8919" cy="303.6999" fill="#E2E2F0" rx="8" ry="8" style="stroke:#181818;stroke-width:0.5;"/><path d="M25.8919,311.6999 L25.8919,338.6999 M12.8919,319.6999 L38.8919,319.6999 M25.8919,338.6999 L12.8919,353.6999 M25.8919,338.6999 L38.8919,353.6999" fill="none" style="stroke:#181818;stroke-width:0.5;"/></g><g class="participant participant-head" data-entity-uid="part2" data-qualified-name="FastAPI" id="part2-head"><rect fill="#E2E2F0" height="30.7999" rx="2.5" ry="2.5" style="stroke:#181818;stroke-width:0.5;" width="63.7978" x="109.7471" y="50"/><text fill="#000000" font-family="sans-serif" font-size="14" lengthAdjust="spacing" textLength="49.7978" x="116.7471" y="70.0059">FastAPI</text></g><g class="participant participant-tail" data-entity-uid="part2" data-qualified-name="FastAPI" id="part2-tail"><rect fill="#E2E2F0" height="30.7999" rx="2.5" ry="2.5" style="stroke:#181818;stroke-width:0.5;" width="63.7978" x="109.7471" y="278.4"/><text fill="#000000" font-family="sans-serif" font-size="14" lengthAdjust="spacing" textLength="49.7978" x="116.7471" y="298.406">FastAPI</text></g><g class="participant participant-head" data-entity-uid="part3" data-qualified-name="App" id="part3-head"><rect fill="#E2E2F0" height="30.7999" rx="2.5" ry="2.5" style="stroke:#181818;stroke-width:0.5;" width="38.9059" x="237.2062" y="50"/><text fill="#000000" font-family="sans-serif" font-size="14" lengthAdjust="spacing" textLength="24.9059" x="244.2062" y="70.0059">App</text></g><g class="participant participant-tail" data-entity-uid="part3" data-qualified-name="App" id="part3-tail"><rect fill="#E2E2F0" height="30.7999" rx="2.5" ry="2.5" style="stroke:#181818;stroke-width:0.5;" width="38.9059" x="237.2062" y="278.4"/><text fill="#000000" font-family="sans-serif" font-size="14" lengthAdjust="spacing" textLength="24.9059" x="244.2062" y="298.406">App</text></g><g class="participant participant-head" data-entity-uid="part4" data-qualified-name="Handler" id="part4-head"><rect fill="#E2E2F0" height="30.7999" rx="2.5" ry="2.5" style="stroke:#181818;stroke-width:0.5;" width="63.0138" x="294.6783" y="50"/><text fill="#000000" font-family="sans-serif" font-size="14" lengthAdjust="spacing" textLength="49.0138" x="301.6783" y="70.0059">Handler</text></g><g class="participant participant-tail" data-entity-uid="part4" data-qualified-name="Handler" id="part4-tail"><rect fill="#E2E2F0" height="30.7999" rx="2.5" ry="2.5" style="stroke:#181818;stroke-width:0.5;" width="63.0138" x="294.6783" y="278.4"/><text fill="#000000" font-family="sans-serif" font-size="14" lengthAdjust="spacing" textLength="49.0138" x="301.6783" y="298.406">Handler</text></g><g class="message" data-entity-1="part1" data-entity-2="part2" id="msg1"><polygon fill="#181818" points="129.646,109.3999,139.646,113.3999,129.646,117.3999,133.646,113.3999" style="stroke:#181818;stroke-width:1;"/><line style="stroke:#181818;stroke-width:1;" x1="25.8919" x2="135.646" y1="113.3999" y2="113.3999"/><text fill="#000000" font-family="sans-serif" font-size="13" lengthAdjust="spacing" textLength="61.4121" x="32.8919" y="107.8769">POST /run</text></g><g class="message" data-entity-1="part2" data-entity-2="part3" id="msg2"><polygon fill="#181818" points="244.6591,139,254.6591,143,244.6591,147,248.6591,143" style="stroke:#181818;stroke-width:1;"/><line style="stroke:#181818;stroke-width:1;" x1="141.646" x2="250.6591" y1="143" y2="143"/><text fill="#000000" font-family="sans-serif" font-size="13" lengthAdjust="spacing" textLength="91.0131" x="148.646" y="137.477">run(commands)</text></g><g class="message" data-entity-1="part3" data-entity-2="part4" id="msg3"><polygon fill="#181818" points="314.1852,168.6,324.1852,172.6,314.1852,176.6,318.1852,172.6" style="stroke:#181818;stroke-width:1;"/><line style="stroke:#181818;stroke-width:1;" x1="256.6591" x2="320.1852" y1="172.6" y2="172.6"/><text fill="#000000" font-family="sans-serif" font-size="13" lengthAdjust="spacing" textLength="45.526" x="263.6591" y="167.077">execute</text></g><g class="message" data-entity-1="part4" data-entity-2="part3" id="msg4"><polygon fill="#181818" points="267.6591,198.2,257.6591,202.2,267.6591,206.2,263.6591,202.2" style="stroke:#181818;stroke-width:1;"/><line style="stroke:#181818;stroke-width:1;" x1="261.6591" x2="325.1852" y1="202.2" y2="202.2"/><text fill="#000000" font-family="sans-serif" font-size="13" lengthAdjust="spacing" textLength="38.298" x="273.6591" y="196.677">events</text></g><g class="message" data-entity-1="part3" data-entity-2="part2" id="msg5"><polygon fill="#181818" points="152.646,227.8,142.646,231.8,152.646,235.8,148.646,231.8" style="stroke:#181818;stroke-width:1;"/><line style="stroke:#181818;stroke-width:1;" x1="146.646" x2="255.6591" y1="231.8" y2="231.8"/><text fill="#000000" font-family="sans-serif" font-size="13" lengthAdjust="spacing" textLength="38.298" x="158.646" y="226.277">events</text></g><g class="message" data-entity-1="part2" data-entity-2="part1" id="msg6"><polygon fill="#181818" points="36.8919,257.4,26.8919,261.4,36.8919,265.4,32.8919,261.4" style="stroke:#181818;stroke-width:1;"/><line style="stroke:#181818;stroke-width:1;" x1="30.8919" x2="140.646" y1="261.4" y2="261.4"/><text fill="#000000" font-family="sans-serif" font-size="13" lengthAdjust="spacing" textLength="91.7541" x="42.8919" y="255.877">JSON response</text></g><?plantuml-src IqmkoIzISCx9JCqhuO9G2hfs2cw9nIME0PuALWe1_i4X2lf5fNbSC36Wj6D10L0AAAYHd9-RcvYNKgp91H83Ida0UJcfHK3fr8hKvDAIL2wO25nVQXdGbcAO1eHLK74aUw0EibBm2lRtKoXABIx8pojE1G00?></g></svg>