<?plantuml 1.2026.2?><svg xmlns="http://www.w3.org/2000/svg" xmlns:xlink="http://www.w3.org/1999/xlink" contentStyleType="text/css" data-diagram-type="DESCRIPTION" height="268px" preserveAspectRatio="none" style="width:921px;height:268px;background:#FFFFFF;" version="1.1" viewBox="0 0 921 268" width="921px" zoomAndPan="magnify"><title>High-Level Architecture</title><defs/><g><g class="title" data-source-line="2"><text fill="#000000" font-family="sans-serif" font-size="14" font-weight="bold" lengthAdjust="spacing" textLength="157.9194" x="374.5953" y="23.0059">High-Level Architecture</text></g><!--cluster Entrypoints--><g class="cluster" data-qualified-name="Entrypoints" data-source-line="4" id="ent0002"><path d="M293.31,44.0939 L372.0937,44.0939 A3.75,3.75 0 0 1 374.5937,46.5939 L381.5937,66.8938 L410.11,66.8938 A2.5,2.5 0 0 1 412.61,69.3938 L412.61,220.5939 A2.5,2.5 0 0 1 410.11,223.0939 L293.31,223.0939 A2.5,2.5 0 0 1 290.81,220.5939 L290.81,46.5939 A2.5,2.5 0 0 1 293.31,44.0939" fill="none" style="stroke:#000000;stroke-width:1.5;"/><line style="stroke:#000000;stroke-width:1.5;" x1="290.81" x2="381.5937" y1="66.8938" y2="66.8938"/><text fill="#000000" font-family="sans-serif" font-size="14" font-weight="bold" lengthAdjust="spacing" textLength="77.7837" x="294.81" y="59.0999">Entrypoints</text></g><!--cluster Command Layer--><g class="cluster" data-qualified-name="Command Layer" data-source-line="9" id="ent0005"><path d="M443.11,126.0939 L553.7996,126.0939 A3.75,3.75 0 0 1 556.2996,128.5939 L563.2996,148.8938 L786.7,148.8938 A2.5,2.5 0 0 1 789.2,151.3938 L789.2,220.5939 A2.5,2.5 0 0 1 786.7,223.0939 L443.11,223.0939 A2.5,2.5 0 0 1 440.61,220.5939 L440.61,128.5939 A2.5,2.5 0 0 1 443.11,126.0939" fill="none" style="stroke:#000000;stroke-width:1.5;"/><line style="stroke:#000000;stroke-width:1.5;" x1="440.61" x2="563.2996" y1="148.8938" y2="148.8938"/><text fill="#000000" font-family="sans-serif" font-size="14" font-weight="bold" lengthAdjust="spacing" textLength="109.6896" x="444.61" y="141.0999">Command Layer</text></g><!--cluster Core--><g class="cluster" data-qualified-name="Core" data-source-line="14" id="ent0008"><path d="M819.7,164.0939 L852.5919,164.0939 A3.75,3.75 0 0 1 855.0919,166.5939 L862.0919,186.8938 L911.61,186.8938 A2.5,2.5 0 0 1 914.11,189.3938 L914.11,258.5939 A2.5,2.5 0 0 1 911.61,261.0939 L819.7,261.0939 A2.5,2.5 0 0 1 817.2,258.5939 L817.2,166.5939 A2.5,2.5 0 0 1 819.7,164.0939" fill="none" style="stroke:#000000;stroke-width:1.5;"/><line style="stroke:#000000;stroke-width:1.5;" x1="817.2" x2="862.0919" y1="186.8938" y2="186.8938"/><text fill="#000000" font-family="sans-serif" font-size="14" font-weight="bold" lengthAdjust="spacing" textLength="31.8919" x="821.2" y="179.0999">Core</text></g><!--cluster Execution--><g class="cluster" data-qualified-name="Execution" data-source-line="18" id="ent0010"><path d="M8.5,126.0939 L76.4057,126.0939 A3.75,3.75 0 0 1 78.9057,128.5939 L85.9057,148.8938 L260.31,148.8938 A2.5,2.5 0 0 1 262.81,151.3938 L262.81,220.5939 A2.5,2.5 0 0 1 260.31,223.0939 L8.5,223.0939 A2.5,2.5 0 0 1 6,220.5939 L6,128.5939 A2.5,2.5 0 0 1 8.5,126.0939" fill="none" style="stroke:#000000;stroke-width:1.5;"/><line style="stroke:#000000;stroke-width:1.5;" x1="6" x2="85.9057" y1="148.8938" y2="148.8938"/><text fill="#000000" font-family="sans-serif" font-size="14" font-weight="bold" lengthAdjust="spacing" textLength="66.9057" x="10" y="141.0999">Execution</text></g><!--entity CLI--><g class="entity" data-qualified-name="Entrypoints.CLI" data-source-line="5" id="ent0003"><rect fill="#F1F1F1" height="46.7999" rx="2.5" ry="2.5" style="stroke:#181818;stroke-width:0.5;" width="61.7839" x="320.82" y="160.6939"/><rect fill="#F1F1F1" height="10" style="stroke:#181818;stroke-width:0.5;" width="15" x="362.6039" y="165.6939"/><rect fill="#F1F1F1" height="2" style="stroke:#181818;stroke-width:0.5;" width="4" x="360.6039" y="167.6939"/><rect fill="#F1F1F1" height="2" style="stroke:#181818;stroke-width:0.5;" width="4" x="360.6039" y="171.6939"/><text fill="#000000" font-family="sans-serif" font-size="14" lengthAdjust="spacing" textLength="21.7839" x="335.82" y="193.6999">CLI</text></g><!--entity FastAPI--><g class="entity" data-qualified-name="Entrypoints.FastAPI" data-source-line="6" id="ent0004"><rect fill="#F1F1F1" height="46.7999" rx="2.5" ry="2.5" style="stroke:#181818;stroke-width:0.5;" width="89.7978" x="306.81" y="78.6939"/><rect fill="#F1F1F1" height="10" style="stroke:#181818;stroke-width:0.5;" width="15" x="376.6078" y="83.6939"/><rect fill="#F1F1F1" height="2" style="stroke:#181818;stroke-width:0.5;" width="4" x="374.6078" y="85.6939"/><rect fill="#F1F1F1" height="2" style="stroke:#181818;stroke-width:0.5;" width="4" x="374.6078" y="89.6939"/><text fill="#000000" font-family="sans-serif" font-size="14" lengthAdjust="spacing" textLength="49.7978" x="321.81" y="111.6999">FastAPI</text></g><!--entity Command Builder--><g class="entity" data-qualified-name="Command Layer.Command Builder" data-source-line="10" id="ent0006"><rect fill="#F1F1F1" height="46.7999" rx="2.5" ry="2.5" style="stroke:#181818;stroke-width:0.5;" width="152.0275" x="456.61" y="160.6939"/><rect fill="#F1F1F1" height="10" style="stroke:#181818;stroke-width:0.5;" width="15" x="588.6375" y="165.6939"/><rect fill="#F1F1F1" height="2" style="stroke:#181818;stroke-width:0.5;" width="4" x="586.6375" y="167.6939"/><rect fill="#F1F1F1" height="2" style="stroke:#181818;stroke-width:0.5;" width="4" x="586.6375" y="171.6939"/><text fill="#000000" font-family="sans-serif" font-size="14" lengthAdjust="spacing" textLength="112.0275" x="471.61" y="193.6999">Command Builder</text></g><!--entity Command--><g class="entity" data-qualified-name="Command Layer.Command" data-source-line="11" id="ent0007"><rect fill="#F1F1F1" height="46.7999" rx="2.5" ry="2.5" style="stroke:#181818;stroke-width:0.5;" width="104.5677" x="668.64" y="160.6939"/><rect fill="#F1F1F1" height="10" style="stroke:#181818;stroke-width:0.5;" width="15" x="753.2077" y="165.6939"/><rect fill="#F1F1F1" height="2" style="stroke:#181818;stroke-width:0.5;" width="4" x="751.2077" y="167.6939"/><rect fill="#F1F1F1" height="2" style="stroke:#181818;stroke-width:0.5;" width="4" x="751.2077" y="171.6939"/><text fill="#000000" font-family="sans-serif" font-size="14" lengthAdjust="spacing" textLength="64.5677" x="683.64" y="193.6999">Command</text></g><!--entity App--><g class="entity" data-qualified-name="Core.App" data-source-line="15" id="ent0009"><rect fill="#F1F1F1" height="46.7999" rx="2.5" ry="2.5" style="stroke:#181818;stroke-width:0.5;" width="64.9059" x="833.2" y="198.6939"/><rect fill="#F1F1F1" height="10" style="stroke:#181818;stroke-width:0.5;" width="15" x="878.1059" y="203.6939"/><rect fill="#F1F1F1" height="2" style="stroke:#181818;stroke-width:0.5;" width="4" x="876.1059" y="205.6939"/><rect fill="#F1F1F1" height="2" style="stroke:#181818;stroke-width:0.5;" width="4" x="876.1059" y="209.6939"/><text fill="#000000" font-family="sans-serif" font-size="14" lengthAdjust="spacing" textLength="24.9059" x="848.2" y="231.6999">App</text></g><!--entity Handler--><g class="entity" data-qualified-name="Execution.Handler" data-source-line="19" id="ent0011"><rect fill="#F1F1F1" height="46.7999" rx="2.5" ry="2.5" style="stroke:#181818;stroke-width:0.5;" width="89.0138" x="22" y="160.6939"/><rect fill="#F1F1F1" height="10" style="stroke:#181818;stroke-width:0.5;" width="15" x="91.0138" y="165.6939"/><rect fill="#F1F1F1" height="2" style="stroke:#181818;stroke-width:0.5;" width="4" x="89.0138" y="167.6939"/><rect fill="#F1F1F1" height="2" style="stroke:#181818;stroke-width:0.5;" width="4" x="89.0138" y="171.6939"/><text fill="#000000" font-family="sans-serif" font-size="14" lengthAdjust="spacing" textLength="49.0138" x="37" y="193.6999">Handler</text></g><!--entity Event--><g class="entity" data-qualified-name="Execution.Event" data-source-line="20" id="ent0012"><rect fill="#F1F1F1" height="46.7999" rx="2.5" ry="2.5" style="stroke:#181818;stroke-width:0.5;" width="75.7979" x="171.01" y="160.6939"/><rect fill="#F1F1F1" height="10" style="stroke:#181818;stroke-width:0.5;" width="15" x="226.8079" y="165.6939"/><rect fill="#F1F1F1" height="2" style="stroke:#181818;stroke-width:0.5;" width="4" x="224.8079" y="167.6939"/><rect fill="#F1F1F1" height="2" style="stroke:#181818;stroke-width:0.5;" width="4" x="224.8079" y="171.6939"/><text fill="#000000" font-family="sans-serif" font-size="14" lengthAdjust="spacing" textLength="35.7979" x="186.01" y="193.6999">Event</text></g><!--link CLI to Command Builder--><g class="link" data-entity-1="ent0003" data-entity-2="ent0006" data-link-type="dependency" data-source-line="23" id="lnk13"><path d="M383.06,184.0939 C403.2,184.0939 424.57,184.0939 450.34,184.0939" fill="none" id="CLI-to-Command Builder" style="stroke:#181818;stroke-width:1;"/><polygon fill="#181818" points="456.34,184.0939,447.34,180.0939,451.34,184.0939,447.34,188.0939,456.34,184.0939" style="stroke:#181818;stroke-width:1;"/></g><!--link FastAPI to Command Builder--><g class="link" data-entity-1="ent0004" data-entity-2="ent0006" data-link-type="dependency" data-source-line="24" id="lnk14"><path d="M396.94,122.3639 C421.98,133.8439 447.9854,145.7645 474.1954,157.7745" fill="none" id="FastAPI-to-Command Builder" style="stroke:#181818;stroke-width:1;"/><polygon fill="#181818" points="479.65,160.2739,473.1344,152.8884,475.1045,158.1911,469.8018,160.1612,479.65,160.2739" style="stroke:#181818;stroke-width:1;"/></g><!--link Command Builder to Command--><g class="link" data-entity-1="ent0006" data-entity-2="ent0007" data-link-type="dependency" data-source-line="26" id="lnk15"><path d="M609.13,184.0939 C629,184.0939 643.98,184.0939 662.28,184.0939" fill="none" id="Command Builder-to-Command" style="stroke:#181818;stroke-width:1;"/><polygon fill="#181818" points="668.28,184.0939,659.28,180.0939,663.28,184.0939,659.28,188.0939,668.28,184.0939" style="stroke:#181818;stroke-width:1;"/></g><!--link Command to App--><g class="link" data-entity-1="ent0007" data-entity-2="ent0009" data-link-type="dependency" data-source-line="27" id="lnk16"><path d="M773.45,197.8139 C793.26,203.0839 809.4725,207.3981 826.9125,212.0481" fill="none" id="Command-to-App" style="stroke:#181818;stroke-width:1;"/><polygon fill="#181818" points="832.71,213.5939,825.0443,207.4103,827.8788,212.3058,822.9833,215.1402,832.71,213.5939" style="stroke:#181818;stroke-width:1;"/></g><!--link App to Handler--><g class="link" data-entity-1="ent0009" data-entity-2="ent0011" data-link-type="dependency" data-source-line="29" id="lnk17"><path d="M832.84,228.2039 C774,238.9439 644.11,260.0939 533.62,260.0939 C350.71,260.0939 350.71,260.0939 350.71,260.0939 C263.41,260.0939 171.5197,228.2645 116.7197,205.7445" fill="none" id="App-to-Handler" style="stroke:#181818;stroke-width:1;"/><polygon fill="#181818" points="111.17,203.4639,117.9741,210.5846,115.7947,205.3644,121.0149,203.1851,111.17,203.4639" style="stroke:#181818;stroke-width:1;"/></g><!--link Handler to Event--><g class="link" data-entity-1="ent0011" data-entity-2="ent0012" data-link-type="dependency" data-source-line="30" id="lnk18"><path d="M111.16,184.0939 C130.32,184.0939 146.57,184.0939 164.91,184.0939" fill="none" id="Handler-to-Event" style="stroke:#181818;stroke-width:1;"/><polygon fill="#181818" points="170.91,184.0939,161.91,180.0939,165.91,184.0939,161.91,188.0939,170.91,184.0939" style="stroke:#181818;stroke-width:1;"/></g><!--link Event to CLI--><g class="link" data-entity-1="ent0012" data-entity-2="ent0003" data-link-type="dependency" data-source-line="32" id="lnk19"><path d="M247.27,184.0939 C270.25,184.0939 293.29,184.0939 314.75,184.0939" fill="none" id="Event-to-CLI" style="stroke:#181818;stroke-width:1;"/><polygon fill="#181818" points="320.75,184.0939,311.75,180.0939,315.75,184.0939,311.75,188.0939,320.75,184.0939" style="stroke:#181818;stroke-width:1;"/></g><!--link Event to FastAPI--><g class="link" data-entity-1="ent0012" data-entity-2="ent0004" data-link-type="dependency" data-source-line="33" id="lnk20"><path d="M247.27,162.3339 C266.5,151.1339 284.7951,140.4834 304.5251,128.9934" fill="none" id="Event-to-FastAPI" style="stroke:#181818;stroke-width:1;"/><polygon fill="#181818" points="309.71,125.9739,299.9197,127.0465,305.3893,128.4901,303.9457,133.9597,309.71,125.9739" style="stroke:#181818;stroke-width:1;"/></g><?plantuml-src TOxD2i8m3CVlUOgm-rv1c39HwC6xU2XRt8gr7JKJX_ZkTZN3gNXfslz7-hDqP6IFmJGjOsq2LMoy0pPi2JTHpHLToM8HgjPmTFj009skJheXp4h7OUYySNp9y0w8-vNQ7iQvrXSkTl7-cCLN_dpMhaQb1mfJGRHbRsnDuJ3Jlik1f5DqtQTNtgZgHt89R6BRohBoIevJFB9XdY_U7F9d1aBxnuKVAGL5XCaSjKW648_q40gGcRH40v36QulQpbu20ay0?></g></svg>